{"title":"Nine Inch Nails - Pretty Hate Machine - Custom Remaster by MC Lu","uid":7730959,"size":1112066451,"categoryP":"audio","categoryS":"flac","magnet":"?xt=urn:btih:9ed5d6a84cbffba7c478738f86435e04fdfd6b57&amp;dn=Nine+Inch+Nails+-+Pretty+Hate+Machine+-+Custom+Remaster+by+MC+Lu&amp;tr=udp%3A%2F%2Ftracker.openbittorrent.com%3A80&amp;tr=udp%3A%2F%2Fopen.demonii.com%3A1337&amp;tr=udp%3A%2F%2Ftracker.coppersurfer.tk%3A6969&amp;tr=udp%3A%2F%2Fexodus.desync.com%3A6969","seeders":1,"leechers":3,"uploader":"beavis39","files":-1,"time":1350335275,"description":"Nine Inch Nails - Pretty Hate Machine - Custom Remaster by MC Lurken\n\n\n\n1 - Head Like A Hole\n2 - Terrible Lie\n3 - Down In It\n4 - Sanctified\n5 - Something I Can Never Have\n6 - Kinda I Want To\n7 - Sin\n8 - That's What I Get\n9 - The Only Time\n10 - Ringfinger\n\n\n\nSetup:\n-HP G72-250US\n-Intel Core i3 M350 2.27GHz\n-8Gb PC3-10700 RAM\n-Win7 64-bit SP1\n-SB X-Fi Surround 5.1\n\n\nProcess:\n-16-bit/44.1kHz files from 1989 release joined in Wavelab 6\n-Remove DC offset and save as 64-bit float/44.1kHz\n-Resample to 384kHz in Wavelab w/crystal resampler ultra(slow) relax background priority\n-Create new 64-bit/384kHz master recording in Wavelab\n\n\nAs reported in Wavelab:\n-Original 16-bit/44.1kHz: Apparent Bit Resolution = 16, Peak = -0.005db\n-With DC Offset Removed: Apparent Bit Resolution = 19, Peak = -0.045db\n-64-bit/384kHz Recording: Apparent Bit Resolution = 38, Peak = 0.317db\n\n\n-Resample new 64-bit/384kHz master recording to 64-bit/96kHz in Wavelab w/crystal resampler ultra(slow) relax background priority\n-Apply MBIT+ 24-bit Dither in Wavelab w/Izotope Ozone 5 VST Plugin\n-Flac encode level 0 with Trader's Little Helper\n-Tag and pic with xrecode II\n\n\nfoobar2000 1.1.14a / Dynamic Range Meter 1.1.1\nlog date: 2012-10-15 13:29:12\n\n--------------------------------------------------------------------------------\nAnalyzed: ? / ?\n--------------------------------------------------------------------------------\n\nDR         Peak         RMS     Duration Track\n--------------------------------------------------------------------------------\nDR13       0.00 dB   -15.68 dB      5:00 ?-01 - Head Like A Hole\nDR12      -0.58 dB   -15.08 dB      4:39 ?-02 - Terrible Lie\nDR11      -0.29 dB   -13.54 dB      3:46 ?-03 - Down In It\nDR15       0.00 dB   -19.43 dB      5:48 ?-04 - Sanctified\nDR13      -0.86 dB   -17.71 dB      5:55 ?-05 - Something I Can Never Have\nDR13       0.00 dB   -15.53 dB      4:33 ?-06 - Kinda I Want To\nDR12       0.00 dB   -14.08 dB      4:06 ?-07 - Sin\nDR13       0.00 dB   -15.93 dB      4:31 ?-08 - That's What I Get\nDR13       0.00 dB   -15.67 dB      4:48 ?-09 - The Only Time\nDR12       0.00 dB   -15.27 dB      5:41 ?-10 - Ringfinger\n--------------------------------------------------------------------------------\n\nNumber of tracks:  10\nOfficial DR value: DR13\n\nSamplerate:        96000 Hz\nChannels:          2\nBits per sample:   24\nBitrate:           4608 kbps\nCodec:             PCM\n\n\n\nenjoy :)","torrent":{"xt":"urn:btih:9ed5d6a84cbffba7c478738f86435e04fdfd6b57","amp;dn":"Nine+Inch+Nails+-+Pretty+Hate+Machine+-+Custom+Remaster+by+MC+Lu","amp;tr":["udp%3A%2F%2Ftracker.openbittorrent.com%3A80","udp%3A%2F%2Fopen.demonii.com%3A1337","udp%3A%2F%2Ftracker.coppersurfer.tk%3A6969","udp%3A%2F%2Fexodus.desync.com%3A6969"],"infoHash":"9ed5d6a84cbffba7c478738f86435e04fdfd6b57","infoHashBuffer":{"type":"Buffer","data":[158,213,214,168,76,191,251,167,196,120,115,143,134,67,94,4,253,253,107,87]},"announce":[],"urlList":[]}}